{
  "version": "1.1.6",
  "modules": [
    {
      "id": 1,
      "plugin": "Core",
      "version": "1.1.6",
      "model": "AudioInterface",
      "params": [],
      "leftModuleId": 45,
      "rightModuleId": 53,
      "data": {
        "audio": {
          "driver": 7,
          "deviceName": "ASIO4ALL v2",
          "offset": 0,
          "maxChannels": 8,
          "sampleRate": 44100,
          "blockSize": 256
        }
      },
      "pos": [
        81,
        0
      ]
    },
    {
      "id": 7,
      "plugin": "Fundamental",
      "version": "1.4.0",
      "model": "Scope",
      "params": [
        {
          "id": 0,
          "value": 0.0
        },
        {
          "id": 1,
          "value": 0.0
        },
        {
          "id": 2,
          "value": 0.0
        },
        {
          "id": 3,
          "value": 0.0
        },
        {
          "id": 4,
          "value": 14.0
        },
        {
          "id": 5,
          "value": 0.0
        },
        {
          "id": 6,
          "value": 0.0
        },
        {
          "id": 7,
          "value": 0.0
        }
      ],
      "leftModuleId": 43,
      "data": {
        "lissajous": 0,
        "external": 0
      },
      "pos": [
        10,
        1
      ]
    },
    {
      "id": 40,
      "plugin": "AudibleInstruments",
      "version": "1.5.0",
      "model": "Marbles",
      "params": [
        {
          "id": 0,
          "value": 0.0
        },
        {
          "id": 1,
          "value": 0.0
        },
        {
          "id": 2,
          "value": 0.363499463
        },
        {
          "id": 3,
          "value": 0.0419998839
        },
        {
          "id": 4,
          "value": 0.0815005377
        },
        {
          "id": 5,
          "value": 0.0
        },
        {
          "id": 6,
          "value": 0.0
        },
        {
          "id": 7,
          "value": 0.719999492
        },
        {
          "id": 8,
          "value": 0.560000181
        },
        {
          "id": 9,
          "value": 0.662000299
        },
        {
          "id": 10,
          "value": 0.0
        },
        {
          "id": 11,
          "value": 0.0
        },
        {
          "id": 12,
          "value": 0.0
        },
        {
          "id": 13,
          "value": 0.40500018
        },
        {
          "id": 14,
          "value": 0.864500463
        }
      ],
      "rightModuleId": 42,
      "data": {
        "t_deja_vu": true,
        "x_deja_vu": true,
        "t_mode": 0,
        "x_mode": 0,
        "t_range": 1,
        "x_range": 2,
        "external": false,
        "x_scale": 0,
        "y_divider_index": 8,
        "x_clock_source_internal": 0
      },
      "pos": [
        0,
        0
      ]
    },
    {
      "id": 41,
      "plugin": "AudibleInstruments",
      "version": "1.5.0",
      "model": "Clouds",
      "params": [
        {
          "id": 0,
          "value": 0.0
        },
        {
          "id": 1,
          "value": 0.0
        },
        {
          "id": 2,
          "value": 0.0
        },
        {
          "id": 3,
          "value": 0.612499118
        },
        {
          "id": 4,
          "value": 0.36499998
        },
        {
          "id": 5,
          "value": 0.0
        },
        {
          "id": 6,
          "value": 0.83799994
        },
        {
          "id": 7,
          "value": 0.346999764
        },
        {
          "id": 8,
          "value": 0.841999412
        },
        {
          "id": 9,
          "value": 0.537999928
        },
        {
          "id": 10,
          "value": 0.0
        },
        {
          "id": 11,
          "value": 0.0
        },
        {
          "id": 12,
          "value": 0.0
        }
      ],
      "leftModuleId": 42,
      "rightModuleId": 44,
      "data": {
        "playback": 0,
        "quality": 0,
        "blendMode": 0
      },
      "pos": [
        32,
        0
      ]
    },
    {
      "id": 42,
      "plugin": "AudibleInstruments",
      "version": "1.5.0",
      "model": "Rings",
      "params": [
        {
          "id": 0,
          "value": 0.0
        },
        {
          "id": 1,
          "value": 0.0
        },
        {
          "id": 2,
          "value": 30.0
        },
        {
          "id": 3,
          "value": 0.615500271
        },
        {
          "id": 4,
          "value": 0.645501137
        },
        {
          "id": 5,
          "value": 0.768500984
        },
        {
          "id": 6,
          "value": 0.692000389
        },
        {
          "id": 7,
          "value": 0.0
        },
        {
          "id": 8,
          "value": 0.0
        },
        {
          "id": 9,
          "value": 0.753000498
        },
        {
          "id": 10,
          "value": -0.831000268
        },
        {
          "id": 11,
          "value": 0.0
        }
      ],
      "leftModuleId": 40,
      "rightModuleId": 41,
      "data": {
        "polyphony": 2,
        "model": 1,
        "easterEgg": false
      },
      "pos": [
        18,
        0
      ]
    },
    {
      "id": 43,
      "plugin": "Bogaudio",
      "version": "1.1.37",
      "model": "Bogaudio-LFO",
      "params": [
        {
          "id": 0,
          "value": -2.96400023
        },
        {
          "id": 1,
          "value": 0.0
        },
        {
          "id": 2,
          "value": 0.0
        },
        {
          "id": 3,
          "value": 0.0
        },
        {
          "id": 4,
          "value": 0.0
        },
        {
          "id": 5,
          "value": 0.0705000013
        },
        {
          "id": 6,
          "value": 0.0
        }
      ],
      "rightModuleId": 7,
      "data": {
        "offset_cv_to_smoothing": false
      },
      "pos": [
        0,
        1
      ]
    },
    {
      "id": 44,
      "plugin": "Bogaudio",
      "version": "1.1.37",
      "model": "Bogaudio-Mix8",
      "params": [
        {
          "id": 0,
          "value": 0.909090936
        },
        {
          "id": 1,
          "value": 0.0
        },
        {
          "id": 2,
          "value": -0.624999523
        },
        {
          "id": 3,
          "value": 0.909090936
        },
        {
          "id": 4,
          "value": 0.0
        },
        {
          "id": 5,
          "value": 0.585999191
        },
        {
          "id": 6,
          "value": 0.909090936
        },
        {
          "id": 7,
          "value": 0.0
        },
        {
          "id": 8,
          "value": 0.0
        },
        {
          "id": 9,
          "value": 0.909090936
        },
        {
          "id": 10,
          "value": 0.0
        },
        {
          "id": 11,
          "value": 0.0
        },
        {
          "id": 12,
          "value": 0.909090936
        },
        {
          "id": 13,
          "value": 0.0
        },
        {
          "id": 14,
          "value": 0.0
        },
        {
          "id": 15,
          "value": 0.909090936
        },
        {
          "id": 16,
          "value": 0.0
        },
        {
          "id": 17,
          "value": 0.0
        },
        {
          "id": 18,
          "value": 0.909090936
        },
        {
          "id": 19,
          "value": 0.0
        },
        {
          "id": 20,
          "value": 0.0
        },
        {
          "id": 21,
          "value": 0.909090936
        },
        {
          "id": 22,
          "value": 0.0
        },
        {
          "id": 23,
          "value": 0.0
        },
        {
          "id": 24,
          "value": 0.909090936
        },
        {
          "id": 25,
          "value": 0.0
        },
        {
          "id": 26,
          "value": 0.0
        }
      ],
      "leftModuleId": 41,
      "rightModuleId": 45,
      "data": {
        "dim_decibels": 12.0,
        "poly_channel_offset": -1
      },
      "pos": [
        50,
        0
      ]
    },
    {
      "id": 45,
      "plugin": "AS",
      "version": "1.0.4",
      "model": "StereoVUmeter",
      "params": [],
      "leftModuleId": 44,
      "rightModuleId": 1,
      "pos": [
        77,
        0
      ]
    },
    {
      "id": 46,
      "plugin": "AS",
      "version": "1.0.4",
      "model": "ReverbFx",
      "params": [
        {
          "id": 0,
          "value": 0.722000003
        },
        {
          "id": 1,
          "value": 0.113999911
        },
        {
          "id": 2,
          "value": 0.5
        },
        {
          "id": 3,
          "value": 0.0
        }
      ],
      "rightModuleId": 51,
      "data": {
        "as_FxBypass": [
          false
        ]
      },
      "pos": [
        38,
        1
      ]
    },
    {
      "id": 48,
      "plugin": "Fundamental",
      "version": "1.4.0",
      "model": "Delay",
      "params": [
        {
          "id": 0,
          "value": 0.467000037
        },
        {
          "id": 1,
          "value": 0.292999893
        },
        {
          "id": 2,
          "value": 0.734000087
        },
        {
          "id": 3,
          "value": 0.573999941
        }
      ],
      "rightModuleId": 52,
      "pos": [
        51,
        1
      ]
    },
    {
      "id": 51,
      "plugin": "AS",
      "version": "1.0.4",
      "model": "ReverbFx",
      "params": [
        {
          "id": 0,
          "value": 0.708500326
        },
        {
          "id": 1,
          "value": 0.10800004
        },
        {
          "id": 2,
          "value": 0.5
        },
        {
          "id": 3,
          "value": 0.0
        }
      ],
      "leftModuleId": 46,
      "data": {
        "as_FxBypass": [
          false
        ]
      },
      "pos": [
        44,
        1
      ]
    },
    {
      "id": 52,
      "plugin": "Fundamental",
      "version": "1.4.0",
      "model": "Delay",
      "params": [
        {
          "id": 0,
          "value": 0.430999845
        },
        {
          "id": 1,
          "value": 0.331999838
        },
        {
          "id": 2,
          "value": 0.750499845
        },
        {
          "id": 3,
          "value": 0.615500033
        }
      ],
      "leftModuleId": 48,
      "pos": [
        59,
        1
      ]
    },
    {
      "id": 53,
      "plugin": "VCV-Recorder",
      "version": "1.1.0",
      "model": "Recorder",
      "params": [
        {
          "id": 0,
          "value": 2.0
        },
        {
          "id": 1,
          "value": 0.0
        }
      ],
      "leftModuleId": 1,
      "data": {
        "format": "wav",
        "path": "C:\\Users\\fmsin.DESKTOP-7SGA9EO/final sound project.wav",
        "incrementPath": true,
        "sampleRate": 44100,
        "depth": 16,
        "bitRate": 256000,
        "videoBitRate": 2048000
      },
      "pos": [
        91,
        0
      ]
    }
  ],
  "cables": [
    {
      "id": 131,
      "outputModuleId": 40,
      "outputId": 1,
      "inputModuleId": 41,
      "inputId": 2,
      "color": "#c9b70e"
    },
    {
      "id": 132,
      "outputModuleId": 40,
      "outputId": 2,
      "inputModuleId": 42,
      "inputId": 5,
      "color": "#0c8e15"
    },
    {
      "id": 133,
      "outputModuleId": 40,
      "outputId": 5,
      "inputModuleId": 42,
      "inputId": 6,
      "color": "#c91847"
    },
    {
      "id": 134,
      "outputModuleId": 40,
      "outputId": 6,
      "inputModuleId": 42,
      "inputId": 2,
      "color": "#0986ad"
    },
    {
      "id": 135,
      "outputModuleId": 42,
      "outputId": 0,
      "inputModuleId": 41,
      "inputId": 6,
      "color": "#c9b70e"
    },
    {
      "id": 136,
      "outputModuleId": 42,
      "outputId": 1,
      "inputModuleId": 41,
      "inputId": 7,
      "color": "#0c8e15"
    },
    {
      "id": 143,
      "outputModuleId": 43,
      "outputId": 1,
      "inputModuleId": 7,
      "inputId": 0,
      "color": "#0c8e15"
    },
    {
      "id": 144,
      "outputModuleId": 43,
      "outputId": 0,
      "inputModuleId": 40,
      "inputId": 1,
      "color": "#c91847"
    },
    {
      "id": 145,
      "outputModuleId": 43,
      "outputId": 2,
      "inputModuleId": 41,
      "inputId": 8,
      "color": "#0986ad"
    },
    {
      "id": 146,
      "outputModuleId": 43,
      "outputId": 1,
      "inputModuleId": 42,
      "inputId": 3,
      "color": "#c9b70e"
    },
    {
      "id": 150,
      "outputModuleId": 46,
      "outputId": 0,
      "inputModuleId": 48,
      "inputId": 4,
      "color": "#c9b70e"
    },
    {
      "id": 149,
      "outputModuleId": 48,
      "outputId": 0,
      "inputModuleId": 44,
      "inputId": 5,
      "color": "#0986ad"
    },
    {
      "id": 151,
      "outputModuleId": 44,
      "outputId": 1,
      "inputModuleId": 45,
      "inputId": 1,
      "color": "#0c8e15"
    },
    {
      "id": 138,
      "outputModuleId": 41,
      "outputId": 1,
      "inputModuleId": 46,
      "inputId": 0,
      "color": "#c9b70e"
    },
    {
      "id": 137,
      "outputModuleId": 41,
      "outputId": 0,
      "inputModuleId": 51,
      "inputId": 0,
      "color": "#c91847"
    },
    {
      "id": 152,
      "outputModuleId": 51,
      "outputId": 0,
      "inputModuleId": 52,
      "inputId": 4,
      "color": "#c91847"
    },
    {
      "id": 153,
      "outputModuleId": 52,
      "outputId": 0,
      "inputModuleId": 44,
      "inputId": 2,
      "color": "#0986ad"
    },
    {
      "id": 154,
      "outputModuleId": 44,
      "outputId": 0,
      "inputModuleId": 45,
      "inputId": 0,
      "color": "#c9b70e"
    },
    {
      "id": 158,
      "outputModuleId": 45,
      "outputId": 1,
      "inputModuleId": 53,
      "inputId": 3,
      "color": "#0986ad"
    },
    {
      "id": 141,
      "outputModuleId": 45,
      "outputId": 0,
      "inputModuleId": 53,
      "inputId": 2,
      "color": "#0986ad"
    }
  ]
}